<?xml version="1.0" encoding="utf-8"?>
<!-- Generator: Adobe Illustrator 17.1.0, SVG Export Plug-In . SVG Version: 6.00 Build 0)  -->
<!DOCTYPE svg PUBLIC "-//W3C//DTD SVG 1.1//EN" "http://www.w3.org/Graphics/SVG/1.1/DTD/svg11.dtd">
<svg version="1.1" id="Layer_1" xmlns="http://www.w3.org/2000/svg" xmlns:xlink="http://www.w3.org/1999/xlink" x="0px" y="0px"
	 viewBox="0 0 26.8 23.1" enable-background="new 0 0 26.8 23.1" xml:space="preserve">
<g>
	<defs>
		<rect id="SVGID_1_" y="0" width="26.8" height="23.1"/>
	</defs>
	<path fill="none" stroke="#000000" stroke-width="1.5" stroke-miterlimit="10" d="M18,18L7.6,13.2V5.6
		L18,0.8c0.4-0.1,0.8,0.1,0.8,0.6v16.1C18.8,17.9,18.4,18.1,18,18z"/>
	<path fill="none" stroke="#000000" stroke-width="1.5" stroke-miterlimit="10" d="M1.5,13.3h6.1V5.5
		H1.5c-0.4,0-0.7,0.3-0.7,0.7v6.4C0.8,13,1.1,13.3,1.5,13.3z"/>
	<path fill="none" stroke="#000000" stroke-width="1.5" stroke-miterlimit="10" d="M6,13.3H2L4,22.1
		c0,0.1,0.2,0.2,0.3,0.2h3.4C7.9,22.4,8,22.2,8,22L6,13.3z"/>
	
		<path fill="none" stroke="#000000" stroke-width="1.5" stroke-linecap="round" stroke-miterlimit="10" d="
		M21.9,14.7c2.4-0.6,4.1-2.7,4.1-5.3c0-2.6-1.7-4.7-4.1-5.3"/>
	
		<path fill="none" stroke="#000000" stroke-width="1.5" stroke-linecap="round" stroke-miterlimit="10" d="
		M21.9,7.4c0.8,0.3,1.4,1.1,1.4,2s-0.6,1.7-1.4,2"/>
</g>
</svg>
