<?xml version="1.0" encoding="utf-8"?>
<!-- Generator: Adobe Illustrator 17.1.0, SVG Export Plug-In . SVG Version: 6.00 Build 0)  -->
<!DOCTYPE svg PUBLIC "-//W3C//DTD SVG 1.1//EN" "http://www.w3.org/Graphics/SVG/1.1/DTD/svg11.dtd">
<svg version="1.1" id="Layer_1" xmlns="http://www.w3.org/2000/svg" xmlns:xlink="http://www.w3.org/1999/xlink" x="0px" y="0px"
	 viewBox="0 0 22.5 25.9" enable-background="new 0 0 22.5 25.9" xml:space="preserve">
<g>
	<defs>
		<rect id="SVGID_1_" y="0" width="22.5" height="25.9"/>
	</defs>
	<clipPath id="SVGID_2_">
		<use xlink:href="#SVGID_1_"  overflow="visible"/>
	</clipPath>
	
		<path clip-path="url(#SVGID_2_)" fill="none" stroke="#000000" stroke-width="1.5" stroke-linecap="round" stroke-miterlimit="10" d="
		M0.9,7.6H7c0.4,0,0.7-0.3,0.7-0.7V1"/>
	
		<path clip-path="url(#SVGID_2_)" fill="none" stroke="#000000" stroke-width="1.5" stroke-linecap="round" stroke-miterlimit="10" d="
		M7.7,14.4v10.1c0,0.4,0.3,0.7,0.7,0.7h12.6c0.4,0,0.7-0.3,0.7-0.7v-16c0-0.4-0.3-0.7-0.7-0.7h-6.5L7.7,14.4z"/>
	
		<path clip-path="url(#SVGID_2_)" fill="none" stroke="#000000" stroke-width="1.5" stroke-linecap="round" stroke-miterlimit="10" d="
		M7.7,14.4l6.9-6.7h0.2V1.5c0-0.4-0.3-0.7-0.7-0.7H7.6L0.7,7.4v10.1c0,0.4,0.3,0.7,0.7,0.7h6.2V14.4z"/>
	
		<path clip-path="url(#SVGID_2_)" fill="none" stroke="#000000" stroke-width="1.5" stroke-linecap="round" stroke-miterlimit="10" d="
		M7.8,14.6H14c0.4,0,0.7-0.3,0.7-0.7V7.9"/>
</g>
</svg>
